<svg viewBox="0 0 37 31" version="1.1" xmlns="http://www.w3.org/2000/svg" xmlns:xlink="http://www.w3.org/1999/xlink">
    <g id="Iteration-4" stroke="none" stroke-width="1" fill="none" fill-rule="evenodd">
        <g id="Busy-Far" transform="translate(-310.000000, -49.000000)">
            <g id="Header">
                <g id="List-Icon" transform="translate(311.000000, 50.000000)">
                    <path d="M33.7790698,2 L1.22093023,2 C0.546976744,2 0,1.552 0,1 C0,0.446666667 0.546976744,0 1.22093023,0 L33.7790698,0 C34.4530233,0 35,0.446666667 35,1 C35,1.552 34.4530233,2 33.7790698,2" id="Fill-1" fill="#FFFFFF"></path>
                    <path d="M33.7790698,2 L1.22093023,2 C0.546976744,2 0,1.552 0,1 C0,0.446666667 0.546976744,0 1.22093023,0 L33.7790698,0 C34.4530233,0 35,0.446666667 35,1 C35,1.552 34.4530233,2 33.7790698,2 Z" id="Stroke-3" stroke="#FFFFFF"></path>
                    <path d="M33.7777778,29 L14.2222222,29 C13.5475556,29 13,28.552 13,28 C13,27.448 13.5475556,27 14.2222222,27 L33.7777778,27 C34.4524444,27 35,27.448 35,28 C35,28.552 34.4524444,29 33.7777778,29" id="Fill-5" fill="#FFFFFF"></path>
                    <path d="M33.7777778,29 L14.2222222,29 C13.5475556,29 13,28.552 13,28 C13,27.448 13.5475556,27 14.2222222,27 L33.7777778,27 C34.4524444,27 35,27.448 35,28 C35,28.552 34.4524444,29 33.7777778,29 Z" id="Stroke-7" stroke="#FFFFFF"></path>
                    <path d="M33.7790698,16 L1.22093023,16 C0.546976744,16 0,15.552 0,15 C0,14.4466667 0.546976744,14 1.22093023,14 L33.7790698,14 C34.4530233,14 35,14.4466667 35,15 C35,15.552 34.4530233,16 33.7790698,16" id="Fill-9" fill="#FFFFFF"></path>
                    <path d="M33.7790698,16 L1.22093023,16 C0.546976744,16 0,15.552 0,15 C0,14.4466667 0.546976744,14 1.22093023,14 L33.7790698,14 C34.4530233,14 35,14.4466667 35,15 C35,15.552 34.4530233,16 33.7790698,16 Z" id="Stroke-11" stroke="#FFFFFF"></path>
                </g>
            </g>
        </g>
    </g>
</svg>